<svg width="50" height="34" viewBox="0 0 50 34" fill="none" xmlns="http://www.w3.org/2000/svg">
<path fill-rule="evenodd" clip-rule="evenodd" d="M7.64417 16.5649V28.0638C7.64417 28.6487 8.12893 29.1337 8.71351 29.1337H12.2922C12.8768 31.3593 14.8872 33 17.2825 33C19.6778 33 21.7024 31.3593 22.2727 29.1337H36.0601C36.6447 31.3593 38.655 33 41.0503 33C43.4457 33 45.4703 31.3593 46.0406 29.1337H48.6926C49.2771 29.1337 49.7619 28.6487 49.7619 28.0638V17.9773C49.7619 17.749 49.6906 17.535 49.5623 17.3638L45.8552 12.128C45.6556 11.8426 45.3277 11.6714 44.9855 11.6714H37.2578V8.3045C37.2578 7.71957 36.773 7.23451 36.1884 7.23451H16.484C15.7426 3.68212 12.5916 1 8.82757 1C4.50744 1 1 4.50959 1 8.83237C1 12.7414 3.89435 15.9942 7.64417 16.5649ZM17.2825 30.86C15.6143 30.86 14.2598 29.5047 14.2598 27.8355C14.2598 26.1663 15.6143 24.811 17.2825 24.811C18.9507 24.811 20.3052 26.1663 20.3052 27.8355C20.3052 29.5047 18.9364 30.86 17.2825 30.86ZM38.0277 27.8355C38.0277 29.5047 39.3822 30.86 41.0503 30.86C42.7185 30.86 44.073 29.5047 44.073 27.8355C44.073 26.1663 42.7185 24.811 41.0503 24.811C39.3822 24.811 38.0277 26.1663 38.0277 27.8355ZM47.6232 18.3339V18.5051H41.806V13.8257H44.4295L47.6232 18.3339ZM39.6673 19.5751V13.8257H37.2578V24.3402C38.1988 23.313 39.5533 22.671 41.0503 22.671C43.6025 22.671 45.7412 24.5399 46.1404 26.9938H47.6232V20.6451H40.7367C40.1521 20.6451 39.6673 20.1601 39.6673 19.5751ZM35.1191 27.008H22.3725C21.9733 24.5542 19.8346 22.6852 17.2825 22.6852C14.7303 22.6852 12.5916 24.5542 12.1924 27.008H9.78285V16.6077C13.4756 16.1511 16.37 13.1266 16.6266 9.38877H35.1191V27.008ZM14.5165 8.84663C14.5165 5.70798 11.9643 3.15426 8.82757 3.15426C5.69084 3.15426 3.13868 5.70798 3.13868 8.84663C3.13868 11.9853 5.69084 14.539 8.82757 14.539C11.9643 14.539 14.5165 11.9853 14.5165 8.84663Z" fill="#212121"/>
<path d="M7.64417 16.5649H7.84417V16.393L7.67426 16.3671L7.64417 16.5649ZM12.2922 29.1337L12.4857 29.0829L12.4465 28.9337H12.2922V29.1337ZM22.2727 29.1337V28.9337H22.1175L22.079 29.0841L22.2727 29.1337ZM36.0601 29.1337L36.2535 29.0829L36.2143 28.9337H36.0601V29.1337ZM46.0406 29.1337V28.9337H45.8854L45.8469 29.0841L46.0406 29.1337ZM49.5623 17.3638L49.399 17.4794L49.4023 17.4838L49.5623 17.3638ZM45.8552 12.128L45.6914 12.2426L45.692 12.2435L45.8552 12.128ZM37.2578 11.6714H37.0578V11.8714H37.2578V11.6714ZM16.484 7.23451L16.2883 7.27537L16.3215 7.43451H16.484V7.23451ZM47.6232 18.5051V18.7051H47.8232V18.5051H47.6232ZM47.6232 18.3339H47.8232V18.2703L47.7864 18.2183L47.6232 18.3339ZM41.806 18.5051H41.606V18.7051H41.806V18.5051ZM41.806 13.8257V13.6257H41.606V13.8257H41.806ZM44.4295 13.8257L44.5927 13.7101L44.5329 13.6257H44.4295V13.8257ZM39.6673 13.8257H39.8673V13.6257H39.6673V13.8257ZM37.2578 13.8257V13.6257H37.0578V13.8257H37.2578ZM37.2578 24.3402H37.0578V24.8546L37.4052 24.4753L37.2578 24.3402ZM46.1404 26.9938L45.943 27.0259L45.9703 27.1938H46.1404V26.9938ZM47.6232 26.9938V27.1938H47.8232V26.9938H47.6232ZM47.6232 20.6451H47.8232V20.4451H47.6232V20.6451ZM22.3725 27.008L22.1751 27.0401L22.2025 27.208H22.3725V27.008ZM35.1191 27.008V27.208H35.3191V27.008H35.1191ZM12.1924 27.008V27.208H12.3625L12.3898 27.0401L12.1924 27.008ZM9.78285 27.008H9.58285V27.208H9.78285V27.008ZM9.78285 16.6077L9.75831 16.4092L9.58285 16.4309V16.6077H9.78285ZM16.6266 9.38877V9.18877H16.4399L16.4271 9.37507L16.6266 9.38877ZM35.1191 9.38877H35.3191V9.18877H35.1191V9.38877ZM7.84417 28.0638V16.5649H7.44417V28.0638H7.84417ZM8.71351 28.9337C8.23951 28.9337 7.84417 28.5383 7.84417 28.0638H7.44417C7.44417 28.759 8.01836 29.3337 8.71351 29.3337V28.9337ZM12.2922 28.9337H8.71351V29.3337H12.2922V28.9337ZM17.2825 32.8C14.9813 32.8 13.048 31.2238 12.4857 29.0829L12.0988 29.1846C12.7056 31.4949 14.7931 33.2 17.2825 33.2V32.8ZM22.079 29.0841C21.5309 31.223 19.5846 32.8 17.2825 32.8V33.2C19.771 33.2 21.874 31.4956 22.4665 29.1834L22.079 29.0841ZM36.0601 28.9337H22.2727V29.3337H36.0601V28.9337ZM41.0503 32.8C38.7491 32.8 36.8158 31.2238 36.2535 29.0829L35.8667 29.1846C36.4735 31.4949 38.5609 33.2 41.0503 33.2V32.8ZM45.8469 29.0841C45.2987 31.223 43.3525 32.8 41.0503 32.8V33.2C43.5389 33.2 45.6418 31.4956 46.2343 29.1834L45.8469 29.0841ZM48.6926 28.9337H46.0406V29.3337H48.6926V28.9337ZM49.5619 28.0638C49.5619 28.5383 49.1666 28.9337 48.6926 28.9337V29.3337C49.3877 29.3337 49.9619 28.759 49.9619 28.0638H49.5619ZM49.5619 17.9773V28.0638H49.9619V17.9773H49.5619ZM49.4023 17.4838C49.5038 17.6192 49.5619 17.7908 49.5619 17.9773H49.9619C49.9619 17.7072 49.8775 17.4508 49.7223 17.2438L49.4023 17.4838ZM45.692 12.2435L49.3991 17.4794L49.7255 17.2482L46.0185 12.0124L45.692 12.2435ZM44.9855 11.8714C45.2616 11.8714 45.5287 12.0101 45.6914 12.2426L46.0191 12.0133C45.7825 11.6751 45.3938 11.4714 44.9855 11.4714V11.8714ZM37.2578 11.8714H44.9855V11.4714H37.2578V11.8714ZM37.0578 8.3045V11.6714H37.4578V8.3045H37.0578ZM36.1884 7.43451C36.6624 7.43451 37.0578 7.82991 37.0578 8.3045H37.4578C37.4578 7.60923 36.8836 7.03451 36.1884 7.03451V7.43451ZM16.484 7.43451H36.1884V7.03451H16.484V7.43451ZM8.82757 1.2C12.4944 1.2 15.5657 3.81323 16.2883 7.27537L16.6798 7.19365C15.9196 3.55102 12.6889 0.8 8.82757 0.8V1.2ZM1.2 8.83237C1.2 4.61993 4.61801 1.2 8.82757 1.2V0.8C4.39686 0.8 0.8 4.39924 0.8 8.83237H1.2ZM7.67426 16.3671C4.02036 15.8111 1.2 12.6408 1.2 8.83237H0.8C0.8 12.8421 3.76834 16.1773 7.61408 16.7626L7.67426 16.3671ZM14.0598 27.8355C14.0598 29.615 15.5037 31.06 17.2825 31.06V30.66C15.7249 30.66 14.4598 29.3943 14.4598 27.8355H14.0598ZM17.2825 24.611C15.5037 24.611 14.0598 26.056 14.0598 27.8355H14.4598C14.4598 26.2766 15.7249 25.011 17.2825 25.011V24.611ZM20.5052 27.8355C20.5052 26.056 19.0612 24.611 17.2825 24.611V25.011C18.8401 25.011 20.1052 26.2766 20.1052 27.8355H20.5052ZM17.2825 31.06C19.0464 31.06 20.5052 29.6156 20.5052 27.8355H20.1052C20.1052 29.3937 18.8264 30.66 17.2825 30.66V31.06ZM41.0503 30.66C39.4927 30.66 38.2277 29.3943 38.2277 27.8355H37.8277C37.8277 29.615 39.2716 31.06 41.0503 31.06V30.66ZM43.873 27.8355C43.873 29.3943 42.6079 30.66 41.0503 30.66V31.06C42.8291 31.06 44.273 29.615 44.273 27.8355H43.873ZM41.0503 25.011C42.6079 25.011 43.873 26.2766 43.873 27.8355H44.273C44.273 26.056 42.8291 24.611 41.0503 24.611V25.011ZM38.2277 27.8355C38.2277 26.2766 39.4927 25.011 41.0503 25.011V24.611C39.2716 24.611 37.8277 26.056 37.8277 27.8355H38.2277ZM47.8232 18.5051V18.3339H47.4232V18.5051H47.8232ZM41.806 18.7051H47.6232V18.3051H41.806V18.7051ZM41.606 13.8257V18.5051H42.006V13.8257H41.606ZM44.4295 13.6257H41.806V14.0257H44.4295V13.6257ZM47.7864 18.2183L44.5927 13.7101L44.2663 13.9413L47.46 18.4495L47.7864 18.2183ZM39.4673 13.8257V19.5751H39.8673V13.8257H39.4673ZM37.2578 14.0257H39.6673V13.6257H37.2578V14.0257ZM37.4578 24.3402V13.8257H37.0578V24.3402H37.4578ZM41.0503 22.471C39.495 22.471 38.0877 23.1381 37.1103 24.2051L37.4052 24.4753C38.3098 23.4878 39.6115 22.871 41.0503 22.871V22.471ZM46.3378 26.9616C45.923 24.4122 43.7018 22.471 41.0503 22.471V22.871C43.5032 22.871 45.5593 24.6676 45.943 27.0259L46.3378 26.9616ZM47.6232 26.7938H46.1404V27.1938H47.6232V26.7938ZM47.4232 20.6451V26.9938H47.8232V20.6451H47.4232ZM40.7367 20.8451H47.6232V20.4451H40.7367V20.8451ZM39.4673 19.5751C39.4673 20.2704 40.0415 20.8451 40.7367 20.8451V20.4451C40.2627 20.4451 39.8673 20.0497 39.8673 19.5751H39.4673ZM22.3725 27.208H35.1191V26.808H22.3725V27.208ZM17.2825 22.8852C19.7354 22.8852 21.7915 24.6819 22.1751 27.0401L22.5699 26.9759C22.1552 24.4265 19.9339 22.4852 17.2825 22.4852V22.8852ZM12.3898 27.0401C12.7735 24.6819 14.8296 22.8852 17.2825 22.8852V22.4852C14.631 22.4852 12.4098 24.4265 11.995 26.9759L12.3898 27.0401ZM9.78285 27.208H12.1924V26.808H9.78285V27.208ZM9.58285 16.6077V27.008H9.98285V16.6077H9.58285ZM16.4271 9.37507C16.1771 13.0167 13.3567 15.9643 9.75831 16.4092L9.80739 16.8062C13.5946 16.338 16.5629 13.2365 16.8262 9.40247L16.4271 9.37507ZM35.1191 9.18877H16.6266V9.58877H35.1191V9.18877ZM35.3191 27.008V9.38877H34.9191V27.008H35.3191ZM8.82757 3.35426C11.8537 3.35426 14.3165 5.81832 14.3165 8.84663H14.7165C14.7165 5.59764 12.0749 2.95426 8.82757 2.95426V3.35426ZM3.33868 8.84663C3.33868 5.81832 5.80141 3.35426 8.82757 3.35426V2.95426C5.58027 2.95426 2.93868 5.59764 2.93868 8.84663H3.33868ZM8.82757 14.339C5.80141 14.339 3.33868 11.8749 3.33868 8.84663H2.93868C2.93868 12.0956 5.58027 14.739 8.82757 14.739V14.339ZM14.3165 8.84663C14.3165 11.8749 11.8537 14.339 8.82757 14.339V14.739C12.0749 14.739 14.7165 12.0956 14.7165 8.84663H14.3165Z" fill="white"/>
<path d="M7.93107 11.3181C8.13405 11.5399 8.40952 11.6667 8.6995 11.6667C8.98947 11.6667 9.26495 11.5399 9.46793 11.3181L12.8751 7.59525C13.2956 7.13583 13.2956 6.37541 12.8751 5.91599C12.4547 5.45657 11.7587 5.45657 11.3383 5.91599L8.6995 8.79925L7.42362 7.40515C7.00315 6.94573 6.30722 6.94573 5.88676 7.40515C5.4663 7.86457 5.4663 8.62499 5.88676 9.08441L7.93107 11.3181Z" fill="#212121" stroke="white" stroke-width="0.4"/>
</svg>
